<svg xmlns="http://www.w3.org/2000/svg" xmlns:xlink="http://www.w3.org/1999/xlink" width="500" zoomAndPan="magnify" viewBox="0 0 375 374.999991" height="500" preserveAspectRatio="xMidYMid meet" version="1.0"><defs><g/><clipPath id="93cf196dc0"><rect x="0" width="345" y="0" height="165"/></clipPath><clipPath id="d4b566b779"><path d="M 225.796875 128.863281 L 310.546875 128.863281 L 310.546875 245.863281 L 225.796875 245.863281 Z M 225.796875 128.863281 " clip-rule="nonzero"/></clipPath><clipPath id="7f88d8e297"><path d="M 19 134.058594 L 93 134.058594 L 93 178 L 19 178 Z M 19 134.058594 " clip-rule="nonzero"/></clipPath><clipPath id="30830d0434"><path d="M 54 170 L 110.25 170 L 110.25 241 L 54 241 Z M 54 170 " clip-rule="nonzero"/></clipPath></defs><g transform="matrix(1, 0, 0, 1, 24, 111)"><g clip-path="url(#93cf196dc0)"><g fill="#2e56a8" fill-opacity="1"><g transform="translate(2.655573, 115.539516)"><g/></g></g><g fill="#2e56a8" fill-opacity="1"><g transform="translate(29.439343, 115.539516)"><g/></g></g><g fill="#2e56a8" fill-opacity="1"><g transform="translate(56.253613, 115.539516)"><g><path d="M 87.703125 15.375 C 91.773438 19.96875 92.378906 25.769531 89.515625 32.78125 C 87.410156 38.050781 82.738281 42.195312 75.5 45.21875 C 72.03125 46.5 68.582031 46.796875 65.15625 46.109375 C 61.726562 45.429688 58.582031 43.960938 55.71875 41.703125 C 53.757812 40.203125 52.046875 38.414062 50.578125 36.34375 C 49.109375 34.269531 47.84375 31.859375 46.78125 29.109375 C 45.726562 26.359375 44.921875 24.003906 44.359375 22.046875 C 43.796875 20.085938 43.140625 17.5625 42.390625 14.46875 C 41.859375 12.207031 40.859375 7.59375 39.390625 0.625 C 37.921875 -6.34375 36.695312 -11.675781 35.71875 -15.375 C 34.507812 -19.59375 32.960938 -23.25 31.078125 -26.34375 C 30.929688 -26.632812 30.664062 -27.007812 30.28125 -27.46875 L 30.28125 -27.578125 C 30.0625 -27.804688 29.800781 -28.109375 29.5 -28.484375 C 29.34375 -28.628906 29.078125 -28.894531 28.703125 -29.28125 C 28.703125 -29.351562 28.703125 -29.390625 28.703125 -29.390625 C 28.097656 -29.910156 27.609375 -30.320312 27.234375 -30.625 C 26.023438 -31.601562 24.820312 -32.285156 23.625 -32.671875 C 23.09375 -32.742188 22.675781 -32.78125 22.375 -32.78125 C 21.84375 -32.851562 21.351562 -33.003906 20.90625 -33.234375 C 20.457031 -33.234375 20.003906 -33.195312 19.546875 -33.125 C 19.171875 -32.96875 18.796875 -32.925781 18.421875 -33 C 18.421875 -30.738281 18.378906 -27.515625 18.296875 -23.328125 C 18.222656 -19.148438 18.1875 -16.570312 18.1875 -15.59375 C 18.1875 -12.582031 18.148438 -9.269531 18.078125 -5.65625 C 17.929688 -0.601562 17.628906 2.710938 17.171875 4.296875 C 16.566406 6.109375 15.34375 7.015625 13.5 7.015625 C 11.65625 7.015625 10.429688 6.109375 9.828125 4.296875 C 9.597656 3.546875 9.40625 2.660156 9.25 1.640625 C 9.101562 0.617188 9.007812 -0.148438 8.96875 -0.671875 C 8.9375 -1.203125 8.898438 -2.203125 8.859375 -3.671875 C 8.828125 -5.140625 8.8125 -5.953125 8.8125 -6.109375 C 8.738281 -9.347656 8.664062 -12.660156 8.59375 -16.046875 C 8.507812 -25.691406 8.507812 -32.285156 8.59375 -35.828125 C 8.664062 -52.023438 9.191406 -65.4375 10.171875 -76.0625 C 10.316406 -77.425781 10.898438 -78.367188 11.921875 -78.890625 C 12.941406 -79.421875 13.976562 -79.421875 15.03125 -78.890625 C 16.082031 -78.367188 16.6875 -77.425781 16.84375 -76.0625 C 17.894531 -66.195312 18.421875 -53.84375 18.421875 -39 C 19.773438 -39.519531 21.171875 -39.820312 22.609375 -39.90625 C 25.015625 -40.65625 26.707031 -41.332031 27.6875 -41.9375 C 28.21875 -42.3125 28.765625 -42.742188 29.328125 -43.234375 C 29.890625 -43.722656 30.507812 -44.304688 31.1875 -44.984375 C 31.863281 -45.660156 32.351562 -46.148438 32.65625 -46.453125 C 36.125 -49.617188 38.914062 -53.085938 41.03125 -56.859375 C 41.632812 -57.910156 42.160156 -58.925781 42.609375 -59.90625 C 42.609375 -59.90625 42.625 -59.960938 42.65625 -60.078125 C 42.695312 -60.191406 42.734375 -60.320312 42.765625 -60.46875 C 42.804688 -60.625 42.863281 -60.796875 42.9375 -60.984375 C 43.019531 -61.171875 43.097656 -61.335938 43.171875 -61.484375 C 43.242188 -61.640625 43.28125 -61.71875 43.28125 -61.71875 C 43.664062 -62.84375 43.96875 -63.859375 44.1875 -64.765625 C 44.257812 -64.992188 44.332031 -65.296875 44.40625 -65.671875 C 44.488281 -66.046875 44.53125 -66.3125 44.53125 -66.46875 C 44.53125 -66.539062 44.566406 -66.726562 44.640625 -67.03125 C 44.710938 -68.007812 44.75 -69.023438 44.75 -70.078125 C 44.75 -70.148438 44.710938 -70.488281 44.640625 -71.09375 L 44.640625 -71.890625 L 44.640625 -71.78125 C 44.410156 -72.757812 44.222656 -73.625 44.078125 -74.375 C 43.929688 -74.75 43.78125 -75.203125 43.625 -75.734375 C 43.550781 -75.734375 43.515625 -75.769531 43.515625 -75.84375 C 42.835938 -77.125 42.3125 -77.988281 41.9375 -78.4375 C 41.78125 -78.664062 41.664062 -78.894531 41.59375 -79.125 C 41.363281 -79.34375 41.210938 -79.453125 41.140625 -79.453125 C 39.703125 -80.890625 38.609375 -81.910156 37.859375 -82.515625 C 35.148438 -84.546875 32.023438 -86.050781 28.484375 -87.03125 C 21.921875 -88.914062 15.4375 -87.9375 9.03125 -84.09375 C 5.789062 -82.132812 3.191406 -79.664062 1.234375 -76.6875 C -0.722656 -73.71875 -1.515625 -70.5 -1.140625 -67.03125 C -0.984375 -65.96875 -1.375 -65.15625 -2.3125 -64.59375 C -3.257812 -64.03125 -4.257812 -63.898438 -5.3125 -64.203125 C -6.375 -64.503906 -6.976562 -65.179688 -7.125 -66.234375 C -7.875 -71.359375 -6.796875 -76.046875 -3.890625 -80.296875 C -0.992188 -84.554688 2.9375 -88.195312 7.90625 -91.21875 C 16.269531 -96.269531 25.085938 -97.960938 34.359375 -96.296875 C 39.785156 -95.316406 44.515625 -93.320312 48.546875 -90.3125 C 52.578125 -87.300781 55.492188 -83.304688 57.296875 -78.328125 C 58.660156 -74.710938 59.191406 -70.960938 58.890625 -67.078125 C 58.585938 -63.203125 57.679688 -59.492188 56.171875 -55.953125 C 54.660156 -52.410156 52.738281 -49.128906 50.40625 -46.109375 C 46.1875 -40.835938 41.851562 -37.335938 37.40625 -35.609375 C 37.03125 -35.453125 36.617188 -35.300781 36.171875 -35.15625 C 38.648438 -33.113281 40.867188 -29.984375 42.828125 -25.765625 C 46.222656 -18.910156 49.46875 -10.132812 52.5625 0.5625 C 53.007812 2.21875 53.929688 5.816406 55.328125 11.359375 C 56.722656 16.898438 57.910156 21.140625 58.890625 24.078125 C 59.566406 25.960938 60.507812 27.882812 61.71875 29.84375 C 63 31.875 64.390625 33.492188 65.890625 34.703125 C 67.929688 36.128906 70.191406 36.765625 72.671875 36.609375 C 75.160156 36.460938 77.5 35.675781 79.6875 34.25 C 81.945312 32.738281 83.734375 30.757812 85.046875 28.3125 C 86.367188 25.863281 86.351562 23.546875 85 21.359375 C 84.019531 19.703125 82.550781 18.609375 80.59375 18.078125 C 78.632812 17.554688 76.863281 17.859375 75.28125 18.984375 C 74.445312 19.515625 73.519531 19.628906 72.5 19.328125 C 71.488281 19.023438 70.753906 18.460938 70.296875 17.640625 C 69.773438 16.734375 69.644531 15.828125 69.90625 14.921875 C 70.164062 14.015625 70.710938 13.257812 71.546875 12.65625 C 74.253906 10.851562 77.113281 10.269531 80.125 10.90625 C 83.144531 11.550781 85.671875 13.039062 87.703125 15.375 Z M 43.625 -75.625 Z M 43.625 -75.625 "/></g></g></g><g fill="#2e56a8" fill-opacity="1"><g transform="translate(117.505913, 115.539516)"><g><path d="M 36.734375 -16.5 C 38.691406 -15.070312 39.742188 -13.28125 39.890625 -11.125 C 40.046875 -8.976562 39.519531 -6.984375 38.3125 -5.140625 C 37.101562 -3.296875 35.5 -1.65625 33.5 -0.21875 C 31.507812 1.207031 29.570312 2.035156 27.6875 2.265625 C 23.320312 2.710938 19.554688 1.410156 16.390625 -1.640625 C 13.222656 -4.691406 10.921875 -8.476562 9.484375 -13 C 7.222656 -19.851562 6.09375 -29.613281 6.09375 -42.28125 C 6.09375 -53.28125 6.660156 -64.164062 7.796875 -74.9375 C 4.023438 -75.007812 1.460938 -75.046875 0.109375 -75.046875 C -0.867188 -75.128906 -1.566406 -75.566406 -1.984375 -76.359375 C -2.398438 -77.148438 -2.398438 -77.957031 -1.984375 -78.78125 C -1.566406 -79.613281 -0.867188 -80.03125 0.109375 -80.03125 C 2.972656 -80.175781 5.757812 -80.285156 8.46875 -80.359375 C 9.300781 -87.523438 10.394531 -94.609375 11.75 -101.609375 C 12.050781 -103.117188 12.898438 -104.0625 14.296875 -104.4375 C 15.691406 -104.8125 16.988281 -104.625 18.1875 -103.875 C 19.394531 -103.125 19.960938 -101.992188 19.890625 -100.484375 C 19.734375 -97.617188 19.46875 -90.988281 19.09375 -80.59375 C 23.394531 -80.664062 26.710938 -80.476562 29.046875 -80.03125 C 30.097656 -79.800781 30.625 -79.0625 30.625 -77.8125 C 30.625 -76.570312 30.097656 -75.84375 29.046875 -75.625 C 26.484375 -74.9375 23.09375 -74.632812 18.875 -74.71875 C 18.71875 -72.15625 18.601562 -70.382812 18.53125 -69.40625 C 18.007812 -57.414062 17.75 -47.429688 17.75 -39.453125 C 17.820312 -33.722656 18.117188 -28.859375 18.640625 -24.859375 C 19.398438 -19.441406 20.34375 -15.410156 21.46875 -12.765625 C 22.144531 -11.265625 23.085938 -9.945312 24.296875 -8.8125 C 25.503906 -7.6875 26.859375 -7.3125 28.359375 -7.6875 C 29.046875 -7.832031 29.878906 -8.359375 30.859375 -9.265625 C 31.835938 -10.171875 32.097656 -10.925781 31.640625 -11.53125 C 31.035156 -12.4375 30.957031 -13.453125 31.40625 -14.578125 C 31.863281 -15.710938 32.601562 -16.46875 33.625 -16.84375 C 34.644531 -17.21875 35.679688 -17.101562 36.734375 -16.5 Z M 36.734375 -16.5 "/></g></g></g><g fill="#2e56a8" fill-opacity="1"><g transform="translate(146.210883, 115.539516)"><g><path d="M 75.171875 -38.875 C 75.921875 -37.445312 75.691406 -36.070312 74.484375 -34.75 C 73.273438 -33.4375 71.992188 -33.304688 70.640625 -34.359375 C 69.585938 -35.109375 68.175781 -36.332031 66.40625 -38.03125 C 64.632812 -39.726562 63.332031 -40.914062 62.5 -41.59375 C 61.070312 -42.726562 59.34375 -43.820312 57.3125 -44.875 C 56.550781 -43.4375 55.71875 -42.117188 54.8125 -40.921875 C 50.289062 -34.585938 45.320312 -30.816406 39.90625 -29.609375 C 35.757812 -28.703125 32.328125 -29.457031 29.609375 -31.875 C 27.953125 -33.457031 26.863281 -35.789062 26.34375 -38.875 C 25.8125 -42.34375 26.351562 -45.601562 27.96875 -48.65625 C 29.59375 -51.707031 31.988281 -53.910156 35.15625 -55.265625 C 38.84375 -56.847656 43.328125 -57.078125 48.609375 -55.953125 C 48.910156 -57.003906 49.132812 -57.90625 49.28125 -58.65625 C 49.351562 -59.1875 49.425781 -59.71875 49.5 -60.25 C 49.5 -60.320312 49.519531 -60.46875 49.5625 -60.6875 C 49.601562 -60.914062 49.625 -61.070312 49.625 -61.15625 C 49.695312 -62.351562 49.769531 -63.484375 49.84375 -64.546875 C 49.84375 -65.597656 49.804688 -66.6875 49.734375 -67.8125 C 49.660156 -67.894531 49.601562 -68.101562 49.5625 -68.4375 C 49.519531 -68.78125 49.5 -68.988281 49.5 -69.0625 C 49.5 -69.132812 49.5 -69.285156 49.5 -69.515625 L 49.390625 -69.859375 C 49.171875 -71.054688 48.867188 -72.1875 48.484375 -73.25 C 48.410156 -73.625 48.257812 -74.070312 48.03125 -74.59375 C 48.03125 -74.675781 47.957031 -74.828125 47.8125 -75.046875 C 47.738281 -75.203125 47.703125 -75.316406 47.703125 -75.390625 C 47.703125 -75.460938 47.609375 -75.664062 47.421875 -76 C 47.234375 -76.34375 47.140625 -76.554688 47.140625 -76.640625 C 46.910156 -77.085938 46.644531 -77.5 46.34375 -77.875 C 46.1875 -78.175781 45.960938 -78.554688 45.671875 -79.015625 C 45.441406 -79.304688 45.289062 -79.492188 45.21875 -79.578125 C 44.53125 -80.328125 43.738281 -81.117188 42.84375 -81.953125 C 42.757812 -82.023438 42.679688 -82.0625 42.609375 -82.0625 C 42.535156 -82.132812 42.460938 -82.207031 42.390625 -82.28125 C 41.785156 -82.664062 41.367188 -82.929688 41.140625 -83.078125 C 39.554688 -83.984375 37.484375 -84.738281 34.921875 -85.34375 C 32.515625 -85.863281 30.066406 -86.015625 27.578125 -85.796875 C 22.003906 -85.191406 18.160156 -82.476562 16.046875 -77.65625 C 15.972656 -77.351562 15.820312 -77.085938 15.59375 -76.859375 C 15.59375 -76.179688 15.613281 -74.992188 15.65625 -73.296875 C 15.695312 -71.597656 15.71875 -70.300781 15.71875 -69.40625 C 16.09375 -53.5 16.28125 -45.242188 16.28125 -44.640625 C 16.351562 -41.929688 16.5 -37.921875 16.71875 -32.609375 C 16.945312 -27.296875 17.117188 -22.976562 17.234375 -19.65625 C 17.347656 -16.34375 17.40625 -12.40625 17.40625 -7.84375 C 17.40625 -3.289062 17.253906 0.90625 16.953125 4.75 C 16.878906 6.03125 16.296875 7.023438 15.203125 7.734375 C 14.109375 8.453125 12.957031 8.640625 11.75 8.296875 C 10.550781 7.960938 9.835938 7.117188 9.609375 5.765625 C 8.859375 1.847656 8.238281 -2.101562 7.75 -6.09375 C 7.257812 -10.09375 6.878906 -14.597656 6.609375 -19.609375 C 6.347656 -24.617188 6.175781 -28.460938 6.09375 -31.140625 C 6.019531 -33.816406 5.945312 -38.164062 5.875 -44.1875 C 5.644531 -54.21875 5.570312 -62.625 5.65625 -69.40625 C 5.875 -80.851562 6.398438 -89.101562 7.234375 -94.15625 C 7.378906 -95.28125 8.015625 -96.066406 9.140625 -96.515625 C 10.273438 -96.972656 11.40625 -96.972656 12.53125 -96.515625 C 13.664062 -96.066406 14.3125 -95.28125 14.46875 -94.15625 C 14.769531 -92.125 14.992188 -89.828125 15.140625 -87.265625 C 19.285156 -91.703125 24.820312 -94.203125 31.75 -94.765625 C 38.6875 -95.335938 44.679688 -93.890625 49.734375 -90.421875 C 54.785156 -86.953125 58.25 -82.203125 60.125 -76.171875 C 62.007812 -70.148438 62.425781 -63.820312 61.375 -57.1875 C 61.070312 -55.457031 60.65625 -53.726562 60.125 -52 C 63.289062 -50.5625 66.210938 -48.691406 68.890625 -46.390625 C 71.566406 -44.097656 73.660156 -41.59375 75.171875 -38.875 Z M 34.46875 -39.109375 C 34.550781 -39.109375 34.59375 -39.109375 34.59375 -39.109375 Z M 43.859375 -45.890625 C 44.234375 -46.492188 44.535156 -46.910156 44.765625 -47.140625 C 45.140625 -47.734375 45.550781 -48.445312 46 -49.28125 C 41.632812 -50.332031 38.242188 -49.769531 35.828125 -47.59375 C 34.316406 -46.3125 33.488281 -44.6875 33.34375 -42.71875 C 33.269531 -41.738281 33.304688 -40.988281 33.453125 -40.46875 C 33.453125 -40.46875 33.566406 -40.238281 33.796875 -39.78125 C 33.796875 -39.78125 33.910156 -39.671875 34.140625 -39.453125 C 34.140625 -39.367188 34.210938 -39.328125 34.359375 -39.328125 L 34.59375 -39.109375 C 34.894531 -39.109375 35.097656 -39.109375 35.203125 -39.109375 C 35.316406 -39.109375 35.410156 -39.109375 35.484375 -39.109375 C 35.484375 -39.179688 35.5625 -39.253906 35.71875 -39.328125 C 36.25 -39.554688 36.664062 -39.75 36.96875 -39.90625 C 37.863281 -40.425781 38.765625 -40.988281 39.671875 -41.59375 C 39.828125 -41.664062 39.90625 -41.703125 39.90625 -41.703125 C 39.976562 -41.785156 40.085938 -41.898438 40.234375 -42.046875 C 40.316406 -42.117188 40.429688 -42.210938 40.578125 -42.328125 C 40.722656 -42.441406 40.851562 -42.554688 40.96875 -42.671875 C 41.082031 -42.785156 41.175781 -42.914062 41.25 -43.0625 C 41.9375 -43.664062 42.726562 -44.492188 43.625 -45.546875 C 43.78125 -45.703125 43.859375 -45.816406 43.859375 -45.890625 Z M 35.71875 -39.328125 L 35.828125 -39.328125 C 35.753906 -39.328125 35.71875 -39.328125 35.71875 -39.328125 Z M 35.71875 -39.328125 "/></g></g></g><g fill="#2e56a8" fill-opacity="1"><g transform="translate(211.11047, 115.539516)"><g/></g></g><g fill="#2e56a8" fill-opacity="1"><g transform="translate(237.89424, 115.539516)"><g/></g></g><g fill="#2e56a8" fill-opacity="1"><g transform="translate(264.70851, 115.539516)"><g><path d="M 74.9375 -91.328125 C 76.75 -90.878906 77.671875 -89.632812 77.703125 -87.59375 C 77.742188 -85.5625 76.820312 -84.320312 74.9375 -83.875 C 73.65625 -83.644531 72.203125 -83.453125 70.578125 -83.296875 C 68.960938 -83.148438 67.585938 -83.078125 66.453125 -83.078125 C 65.328125 -83.078125 63.820312 -83.09375 61.9375 -83.125 C 60.050781 -83.164062 58.660156 -83.1875 57.765625 -83.1875 C 54.367188 -83.113281 50.5625 -83.039062 46.34375 -82.96875 C 46.34375 -80.707031 46.285156 -78.238281 46.171875 -75.5625 C 46.054688 -72.882812 45.921875 -70.472656 45.765625 -68.328125 C 45.617188 -66.179688 45.46875 -63.710938 45.3125 -60.921875 C 45.164062 -58.128906 45.054688 -55.71875 44.984375 -53.6875 C 44.003906 -30.78125 44.082031 -12.8125 45.21875 0.21875 C 45.519531 3.613281 46.046875 6.476562 46.796875 8.8125 C 47.398438 10.550781 47.960938 11.910156 48.484375 12.890625 C 48.785156 13.492188 49.351562 14.132812 50.1875 14.8125 C 52.75 16.769531 55.460938 16.957031 58.328125 15.375 C 59.910156 14.46875 61.039062 13.203125 61.71875 11.578125 C 62.394531 9.960938 62.617188 8.175781 62.390625 6.21875 C 62.316406 5.238281 62.675781 4.503906 63.46875 4.015625 C 64.257812 3.523438 65.125 3.410156 66.0625 3.671875 C 67.007812 3.929688 67.554688 4.550781 67.703125 5.53125 C 68.753906 10.8125 67.53125 15.351562 64.03125 19.15625 C 60.53125 22.957031 56.101562 24.75 50.75 24.53125 C 46.53125 24.300781 42.929688 22.625 39.953125 19.5 C 36.972656 16.375 34.84375 12.625 33.5625 8.25 C 33.1875 6.738281 32.828125 5.117188 32.484375 3.390625 C 32.148438 1.660156 31.90625 0.117188 31.75 -1.234375 C 31.601562 -2.597656 31.492188 -4.351562 31.421875 -6.5 C 31.347656 -8.644531 31.289062 -10.222656 31.25 -11.234375 C 31.21875 -12.253906 31.203125 -13.988281 31.203125 -16.4375 C 31.203125 -18.894531 31.203125 -20.5 31.203125 -21.25 C 31.046875 -33.082031 31.457031 -43.894531 32.4375 -53.6875 C 33.644531 -66.050781 35.15625 -75.695312 36.96875 -82.625 C 32.0625 -82.476562 28.023438 -82.328125 24.859375 -82.171875 C 22.679688 -82.097656 19.929688 -81.984375 16.609375 -81.828125 C 16.304688 -81.828125 15.757812 -81.804688 14.96875 -81.765625 C 14.1875 -81.734375 13.585938 -81.71875 13.171875 -81.71875 C 12.753906 -81.71875 12.222656 -81.734375 11.578125 -81.765625 C 10.941406 -81.804688 10.359375 -81.863281 9.828125 -81.9375 C 9.304688 -82.019531 8.78125 -82.132812 8.25 -82.28125 C 6.820312 -82.8125 5.972656 -83.847656 5.703125 -85.390625 C 5.441406 -86.941406 6.023438 -88.128906 7.453125 -88.953125 C 8.816406 -89.703125 11.679688 -90.304688 16.046875 -90.765625 C 18.378906 -90.992188 21.171875 -91.21875 24.421875 -91.4375 C 29.835938 -91.8125 35.375 -92.078125 41.03125 -92.234375 C 45.851562 -92.378906 51.582031 -92.414062 58.21875 -92.34375 C 58.59375 -92.34375 59.910156 -92.359375 62.171875 -92.390625 C 64.429688 -92.429688 65.992188 -92.429688 66.859375 -92.390625 C 67.722656 -92.359375 68.960938 -92.25 70.578125 -92.0625 C 72.203125 -91.875 73.65625 -91.628906 74.9375 -91.328125 Z M 74.9375 -91.328125 "/></g></g></g></g></g><g clip-path="url(#d4b566b779)"><path fill="#2e56a8" d="M 302.769531 140.761719 L 289.3125 140.761719 L 289.3125 140.527344 C 289.3125 134.097656 284.082031 128.863281 277.648438 128.863281 L 258.378906 128.863281 C 251.949219 128.863281 246.714844 134.09375 246.714844 140.527344 L 246.714844 140.761719 L 233.261719 140.761719 C 229.160156 140.761719 225.820312 144.097656 225.820312 148.203125 L 225.820312 151.824219 C 225.820312 153.078125 226.839844 154.09375 228.09375 154.09375 L 307.9375 154.09375 C 309.191406 154.09375 310.210938 153.074219 310.210938 151.824219 L 310.210938 148.203125 C 310.210938 144.097656 306.871094 140.761719 302.769531 140.761719 Z M 249.039062 140.527344 C 249.039062 135.378906 253.230469 131.1875 258.378906 131.1875 L 277.648438 131.1875 C 282.796875 131.1875 286.988281 135.378906 286.988281 140.527344 L 286.988281 140.761719 L 286.136719 140.761719 L 286.136719 140.527344 C 286.136719 135.847656 282.328125 132.039062 277.648438 132.039062 L 258.378906 132.039062 C 253.699219 132.039062 249.890625 135.847656 249.890625 140.527344 L 249.890625 140.761719 L 249.039062 140.761719 Z M 252.214844 140.761719 L 252.214844 140.527344 C 252.214844 137.128906 254.980469 134.363281 258.378906 134.363281 L 277.648438 134.363281 C 281.046875 134.363281 283.8125 137.128906 283.8125 140.527344 L 283.8125 140.761719 Z M 307.886719 151.769531 L 228.144531 151.769531 L 228.144531 148.203125 C 228.144531 145.382812 230.441406 143.085938 233.261719 143.085938 L 247.84375 143.085938 C 247.855469 143.085938 247.867188 143.089844 247.875 143.089844 C 247.886719 143.089844 247.898438 143.085938 247.910156 143.085938 L 251.019531 143.085938 C 251.03125 143.085938 251.042969 143.089844 251.050781 143.089844 C 251.0625 143.089844 251.074219 143.085938 251.082031 143.085938 L 284.941406 143.085938 C 284.953125 143.085938 284.960938 143.089844 284.972656 143.089844 C 284.984375 143.089844 284.996094 143.085938 285.003906 143.085938 L 288.117188 143.085938 C 288.128906 143.085938 288.136719 143.089844 288.148438 143.089844 C 288.15625 143.089844 288.167969 143.085938 288.179688 143.085938 L 302.765625 143.085938 C 305.585938 143.085938 307.882812 145.382812 307.882812 148.203125 L 307.882812 151.769531 Z M 242.988281 234.136719 L 239.886719 167.207031 C 239.855469 166.566406 240.351562 166.019531 240.992188 165.992188 C 241.632812 165.960938 242.179688 166.457031 242.207031 167.097656 L 245.308594 234.027344 C 245.339844 234.667969 244.84375 235.214844 244.203125 235.242188 C 244.183594 235.242188 244.167969 235.242188 244.148438 235.242188 C 243.53125 235.242188 243.015625 234.757812 242.988281 234.132812 Z M 290.71875 234.027344 L 293.816406 167.097656 C 293.847656 166.457031 294.386719 165.960938 295.03125 165.992188 C 295.671875 166.023438 296.167969 166.566406 296.136719 167.207031 L 293.039062 234.136719 C 293.011719 234.757812 292.496094 235.246094 291.878906 235.246094 C 291.859375 235.246094 291.839844 235.246094 291.824219 235.246094 C 291.179688 235.214844 290.683594 234.667969 290.714844 234.03125 Z M 254.15625 236.589844 C 256.640625 236.589844 258.664062 234.566406 258.664062 232.082031 L 258.664062 169.742188 C 258.664062 167.253906 256.640625 165.234375 254.15625 165.234375 C 251.671875 165.234375 249.652344 167.253906 249.652344 169.742188 L 249.652344 232.082031 C 249.652344 234.566406 251.671875 236.589844 254.15625 236.589844 Z M 251.976562 169.742188 C 251.976562 168.535156 252.953125 167.558594 254.15625 167.558594 C 255.359375 167.558594 256.339844 168.535156 256.339844 169.742188 L 256.339844 232.082031 C 256.339844 233.285156 255.359375 234.265625 254.15625 234.265625 C 252.953125 234.265625 251.976562 233.285156 251.976562 232.082031 Z M 268.011719 236.589844 C 270.5 236.589844 272.519531 234.566406 272.519531 232.082031 L 272.519531 169.742188 C 272.519531 167.253906 270.496094 165.234375 268.011719 165.234375 C 265.527344 165.234375 263.503906 167.253906 263.503906 169.742188 L 263.503906 232.082031 C 263.503906 234.566406 265.527344 236.589844 268.011719 236.589844 Z M 265.832031 169.742188 C 265.832031 168.535156 266.808594 167.558594 268.011719 167.558594 C 269.214844 167.558594 270.191406 168.535156 270.191406 169.742188 L 270.191406 232.082031 C 270.191406 233.285156 269.214844 234.265625 268.011719 234.265625 C 266.808594 234.265625 265.832031 233.285156 265.832031 232.082031 Z M 281.867188 236.589844 C 284.351562 236.589844 286.375 234.566406 286.375 232.082031 L 286.375 169.742188 C 286.375 167.253906 284.351562 165.234375 281.867188 165.234375 C 279.382812 165.234375 277.359375 167.253906 277.359375 169.742188 L 277.359375 232.082031 C 277.359375 234.566406 279.382812 236.589844 281.867188 236.589844 Z M 279.683594 169.742188 C 279.683594 168.535156 280.664062 167.558594 281.867188 167.558594 C 283.070312 167.558594 284.046875 168.535156 284.046875 169.742188 L 284.046875 232.082031 C 284.046875 233.285156 283.070312 234.265625 281.867188 234.265625 C 280.664062 234.265625 279.683594 233.285156 279.683594 232.082031 Z M 305.808594 155.691406 L 230.214844 155.691406 C 229.894531 155.691406 229.585938 155.824219 229.367188 156.058594 C 229.148438 156.296875 229.035156 156.609375 229.058594 156.933594 L 234.441406 235.503906 C 234.847656 241.464844 239.847656 246.128906 245.824219 246.128906 L 290.210938 246.128906 C 296.183594 246.128906 301.179688 241.460938 301.589844 235.503906 L 306.972656 156.933594 C 306.996094 156.609375 306.882812 156.292969 306.664062 156.058594 C 306.441406 155.824219 306.132812 155.691406 305.8125 155.691406 Z M 299.265625 235.34375 C 298.941406 240.089844 294.957031 243.808594 290.203125 243.808594 L 245.820312 243.808594 C 241.066406 243.808594 237.085938 240.089844 236.757812 235.34375 L 231.460938 158.015625 L 304.566406 158.015625 L 299.269531 235.34375 Z M 299.265625 235.34375 " fill-opacity="1" fill-rule="nonzero"/></g><g clip-path="url(#7f88d8e297)"><path fill="#2e56a8" d="M 19.980469 166.078125 L 39.59375 177.617188 C 39.867188 177.792969 40.191406 177.894531 40.53125 177.894531 C 41.199219 177.894531 41.792969 177.511719 42.078125 176.933594 L 54.734375 154.5625 C 54.753906 154.53125 54.765625 154.503906 54.78125 154.472656 L 62.597656 167.6875 L 57.300781 170.855469 C 56.648438 171.246094 56.332031 172.019531 56.515625 172.753906 C 56.699219 173.492188 57.34375 174.019531 58.105469 174.058594 L 81.601562 175.175781 C 81.628906 175.175781 81.65625 175.175781 81.683594 175.175781 C 82.378906 175.175781 83.007812 174.761719 83.277344 174.117188 C 84.773438 170.515625 86.269531 166.914062 87.769531 163.3125 C 89.253906 159.738281 90.742188 156.164062 92.226562 152.589844 C 92.515625 151.898438 92.320312 151.097656 91.75 150.613281 C 91.175781 150.128906 90.355469 150.070312 89.71875 150.46875 L 84.777344 153.570312 C 83.410156 151.234375 82.042969 148.894531 80.675781 146.558594 C 79.585938 144.695312 78.5 142.835938 77.410156 140.972656 C 77.273438 140.738281 77.140625 140.503906 77.003906 140.253906 L 76.851562 139.976562 C 75.957031 138.363281 74.6875 136.984375 73.179688 135.988281 L 73.15625 135.972656 C 73.144531 135.964844 73.128906 135.953125 73.117188 135.945312 C 71.503906 134.890625 69.625 134.300781 67.683594 134.238281 C 63.945312 134.121094 60.117188 134.058594 56.300781 134.058594 C 52.210938 134.058594 48.039062 134.132812 43.898438 134.273438 C 43.214844 134.300781 42.613281 134.722656 42.359375 135.359375 C 42.277344 135.5625 42.238281 135.773438 42.234375 135.988281 C 41.085938 135.671875 39.898438 135.617188 38.707031 135.828125 C 38.503906 135.863281 38.3125 135.910156 38.132812 135.949219 C 38.125 135.953125 38.121094 135.953125 38.113281 135.957031 C 35.992188 136.492188 34.105469 137.960938 32.945312 139.988281 L 19.355469 163.738281 C 18.886719 164.554688 19.164062 165.601562 19.976562 166.078125 Z M 56.304688 137.503906 C 60.082031 137.503906 63.875 137.5625 67.578125 137.679688 C 68.878906 137.722656 70.136719 138.113281 71.214844 138.816406 L 71.234375 138.828125 C 71.246094 138.835938 71.257812 138.84375 71.269531 138.851562 C 72.597656 139.730469 73.398438 140.855469 73.839844 141.652344 L 73.988281 141.917969 C 74.132812 142.179688 74.28125 142.445312 74.4375 142.714844 C 75.527344 144.574219 76.613281 146.433594 77.703125 148.296875 C 79.371094 151.144531 81.035156 153.996094 82.703125 156.847656 C 82.9375 157.25 83.324219 157.539062 83.777344 157.652344 C 84.234375 157.761719 84.710938 157.683594 85.105469 157.4375 L 86.96875 156.265625 C 86.175781 158.175781 85.378906 160.082031 84.585938 161.988281 C 83.246094 165.21875 81.902344 168.445312 80.558594 171.675781 L 63.964844 170.886719 L 65.839844 169.765625 C 66.652344 169.277344 66.917969 168.226562 66.4375 167.410156 L 50.945312 141.210938 C 50.214844 139.910156 49.34375 138.695312 48.347656 137.59375 C 51.011719 137.535156 53.675781 137.503906 56.300781 137.503906 Z M 35.941406 141.699219 C 36.636719 140.480469 37.734375 139.605469 38.953125 139.296875 C 39.082031 139.265625 39.195312 139.238281 39.304688 139.21875 C 40.035156 139.089844 40.722656 139.125 41.414062 139.332031 C 42.210938 139.5625 42.976562 140.0625 43.625 140.777344 C 44.320312 141.539062 44.691406 141.996094 44.761719 142.101562 C 46.753906 145.105469 50.03125 150.628906 51.546875 153.203125 L 39.894531 173.796875 L 23.199219 163.96875 Z M 35.941406 141.699219 " fill-opacity="1" fill-rule="nonzero"/></g><g clip-path="url(#30830d0434)"><path fill="#2e56a8" d="M 109.246094 195.226562 L 95.476562 171.582031 C 95.003906 170.769531 93.960938 170.488281 93.136719 170.953125 L 73.332031 182.171875 C 73.039062 182.320312 72.789062 182.550781 72.621094 182.847656 C 72.316406 183.386719 72.320312 184.046875 72.632812 184.578125 C 77 191.988281 81.367188 199.402344 85.734375 206.816406 C 85.75 206.839844 85.765625 206.867188 85.78125 206.890625 L 70.441406 207.054688 L 70.347656 200.882812 C 70.335938 200.125 69.828125 199.460938 69.097656 199.253906 C 68.367188 199.042969 67.585938 199.339844 67.175781 199.980469 C 62.9375 206.578125 58.699219 213.175781 54.457031 219.769531 C 54.066406 220.378906 54.097656 221.171875 54.539062 221.75 C 56.898438 224.832031 59.261719 227.917969 61.621094 231.003906 C 63.984375 234.089844 66.34375 237.175781 68.703125 240.261719 C 69.039062 240.695312 69.546875 240.9375 70.074219 240.9375 C 70.269531 240.9375 70.464844 240.90625 70.65625 240.835938 C 71.363281 240.582031 71.824219 239.898438 71.792969 239.148438 L 71.578125 233.320312 L 86.167969 233.238281 C 86.425781 233.234375 86.691406 233.242188 86.96875 233.246094 C 87.082031 233.25 87.199219 233.25 87.308594 233.253906 C 88.59375 233.277344 90.558594 233.085938 92.613281 232.058594 L 92.664062 232.035156 C 94.386719 231.164062 95.835938 229.832031 96.859375 228.183594 C 98.835938 225 100.804688 221.710938 102.707031 218.414062 C 104.746094 214.878906 106.757812 211.25 108.691406 207.625 C 109.027344 207.050781 109.007812 206.316406 108.605469 205.753906 C 108.460938 205.550781 108.277344 205.386719 108.074219 205.265625 C 108.917969 204.425781 109.558594 203.425781 109.972656 202.285156 C 110.039062 202.101562 110.101562 201.910156 110.15625 201.71875 C 110.753906 199.609375 110.425781 197.242188 109.25 195.226562 Z M 76.492188 184.339844 L 93.355469 174.789062 L 106.269531 196.964844 C 106.976562 198.175781 107.183594 199.566406 106.839844 200.777344 C 106.808594 200.890625 106.769531 201.007812 106.730469 201.117188 C 106.480469 201.808594 106.105469 202.386719 105.582031 202.882812 C 104.976562 203.464844 104.164062 203.875 103.222656 204.078125 C 102.210938 204.296875 101.628906 204.390625 101.507812 204.402344 C 97.648438 204.636719 90.644531 204.707031 88.5 204.726562 C 84.496094 197.929688 80.496094 191.132812 76.492188 184.339844 Z M 99.71875 216.695312 C 97.835938 219.957031 95.886719 223.214844 93.929688 226.367188 C 93.242188 227.480469 92.265625 228.375 91.117188 228.957031 L 91.070312 228.976562 C 89.640625 229.695312 88.261719 229.824219 87.363281 229.808594 C 87.253906 229.808594 87.144531 229.804688 87.035156 229.800781 C 86.746094 229.796875 86.445312 229.789062 86.144531 229.792969 L 69.777344 229.882812 C 69.308594 229.886719 68.863281 230.078125 68.542969 230.414062 C 68.21875 230.75 68.046875 231.207031 68.0625 231.671875 L 68.144531 233.863281 C 66.882812 232.210938 65.621094 230.558594 64.355469 228.910156 C 62.242188 226.144531 60.125 223.378906 58.007812 220.613281 C 61 215.957031 63.992188 211.296875 66.984375 206.640625 L 67.019531 208.820312 C 67.035156 209.761719 67.800781 210.515625 68.742188 210.515625 C 68.75 210.515625 68.753906 210.515625 68.761719 210.515625 L 99.195312 210.195312 C 100.679688 210.214844 102.164062 210.066406 103.621094 209.753906 C 102.339844 212.089844 101.035156 214.410156 99.71875 216.695312 Z M 99.71875 216.695312 " fill-opacity="1" fill-rule="nonzero"/></g><path fill="#2e56a8" d="M 52.417969 207.765625 C 52.058594 207.398438 51.5625 207.21875 51.066406 207.25 C 46.820312 207.289062 42.574219 207.328125 38.324219 207.363281 C 34.003906 207.402344 29.683594 207.4375 25.363281 207.476562 C 25.332031 207.476562 25.300781 207.480469 25.273438 207.480469 L 32.808594 194.109375 L 38.199219 197.109375 C 38.863281 197.480469 39.691406 197.371094 40.238281 196.84375 C 40.78125 196.3125 40.917969 195.488281 40.570312 194.816406 C 37.875 189.578125 35.175781 184.347656 32.476562 179.113281 L 29.789062 173.90625 C 29.457031 173.257812 28.757812 172.890625 28.035156 172.984375 C 24.191406 173.484375 20.339844 173.988281 16.496094 174.488281 C 12.636719 174.992188 8.777344 175.496094 4.921875 175.996094 C 4.175781 176.09375 3.582031 176.660156 3.445312 177.398438 C 3.3125 178.140625 3.675781 178.878906 4.335938 179.230469 L 9.492188 181.953125 L 2.269531 194.628906 C 2.109375 194.910156 1.9375 195.191406 1.757812 195.488281 L 1.683594 195.609375 C 1.019531 196.710938 0.199219 198.507812 0.0585938 200.800781 C 0.0546875 200.835938 0.0546875 200.871094 0.0546875 200.90625 L 0.0546875 200.910156 C -0.0429688 202.816406 0.382812 204.71875 1.292969 206.417969 C 3.089844 209.773438 4.953125 213.121094 6.828125 216.367188 C 8.863281 219.886719 10.992188 223.4375 13.160156 226.914062 C 13.441406 227.429688 13.976562 227.789062 14.601562 227.816406 C 14.628906 227.816406 14.652344 227.820312 14.679688 227.820312 C 14.988281 227.820312 15.277344 227.734375 15.53125 227.589844 C 15.835938 228.742188 16.378906 229.796875 17.160156 230.722656 C 17.28125 230.871094 17.414062 231.019531 17.566406 231.171875 C 19.085938 232.734375 21.285156 233.628906 23.609375 233.628906 L 23.640625 233.628906 L 51 233.527344 C 51.945312 233.523438 52.710938 232.761719 52.71875 231.816406 L 52.90625 209.09375 C 52.941406 208.609375 52.769531 208.125 52.417969 207.765625 L 52.414062 207.765625 Z M 13.875 221.492188 C 12.492188 219.214844 11.132812 216.925781 9.816406 214.640625 C 7.960938 211.429688 6.113281 208.113281 4.332031 204.789062 C 3.714844 203.636719 3.429688 202.34375 3.5 201.050781 C 3.503906 201.019531 3.503906 200.992188 3.503906 200.960938 C 3.609375 199.386719 4.179688 198.152344 4.636719 197.390625 L 4.710938 197.269531 C 4.890625 196.96875 5.078125 196.65625 5.265625 196.332031 L 13.371094 182.113281 C 13.601562 181.707031 13.65625 181.226562 13.527344 180.78125 C 13.394531 180.332031 13.089844 179.957031 12.675781 179.738281 L 10.738281 178.714844 C 12.804688 178.445312 14.871094 178.175781 16.9375 177.90625 C 20.386719 177.457031 23.832031 177.007812 27.28125 176.558594 L 29.410156 180.691406 C 31.238281 184.234375 33.066406 187.78125 34.894531 191.324219 L 32.980469 190.261719 C 32.152344 189.800781 31.109375 190.09375 30.644531 190.921875 L 15.703125 217.441406 C 14.945312 218.722656 14.328125 220.082031 13.871094 221.492188 Z M 49.289062 230.085938 L 23.632812 230.183594 L 23.613281 230.183594 C 22.214844 230.183594 20.914062 229.667969 20.039062 228.769531 C 19.949219 228.675781 19.878906 228.597656 19.8125 228.519531 L 19.804688 228.507812 C 19.328125 227.945312 19.015625 227.332031 18.84375 226.628906 C 18.648438 225.820312 18.699219 224.910156 18.992188 223.992188 C 19.332031 222.929688 19.527344 222.4375 19.570312 222.347656 C 21.128906 219.222656 24.054688 213.992188 25.792969 210.921875 C 29.980469 210.882812 34.167969 210.847656 38.355469 210.808594 C 42.054688 210.777344 45.75 210.746094 49.449219 210.710938 Z M 49.289062 230.085938 " fill-opacity="1" fill-rule="nonzero"/></svg>